<svg xmlns="http://www.w3.org/2000/svg" width="285.614" height="104.064" viewBox="0 0 285.614 104.064"><defs><style>.a{fill:#fff;}.b{fill:#3d2a2b;}</style></defs><path class="a" d="M275.036,104.065H10.577C4.763,104.065,0,98.21,0,91.059V13.009C0,5.858,4.763,0,10.577,0H275.036c5.814,0,10.577,5.858,10.577,13.009V91.059C285.616,98.21,280.853,104.065,275.036,104.065Z" transform="translate(0 0)"/><g transform="translate(33.117 27.09)"><path class="b" d="M3535.385,585.607a6.07,6.07,0,0,1-4.378-1.764,6.227,6.227,0,0,1,0-8.771,6.051,6.051,0,0,1,4.378-1.773,6.311,6.311,0,0,1,2.443.5,4.884,4.884,0,0,1,1.875,1.322l.091.109-1.229,1.227-.109-.127a3.794,3.794,0,0,0-3.07-1.3,4.327,4.327,0,0,0-3.067,1.227,4.627,4.627,0,0,0,0,6.4,4.37,4.37,0,0,0,3.067,1.225,4.3,4.3,0,0,0,3.136-1.234,3.321,3.321,0,0,0,.911-2.063h-4.2V578.9h5.9l.028.12a4.051,4.051,0,0,1,.091.9,5.352,5.352,0,0,1-1.482,3.942A5.866,5.866,0,0,1,3535.385,585.607Z" transform="translate(-3473.671 -573.3)"/><path class="b" d="M4149.585,596.78H4142.5V585h7.085v1.719h-5.28v3.326h4.763v1.691H4144.3v3.326h5.28Z" transform="translate(-4073.085 -584.735)"/><path class="b" d="M4515.745,596.78h-1.8V586.718H4510.7V585h8.289v1.719h-3.243Z" transform="translate(-4432.948 -584.735)"/><path class="b" d="M5120,596.78h-1.8V585h1.8Z" transform="translate(-5026.694 -584.735)"/><path class="b" d="M5272.345,596.78h-1.793V586.718H5267.3V585h8.3v1.719h-3.253V596.78Z" transform="translate(-5172.418 -584.735)"/><path class="b" d="M5841.63,585.8a5.924,5.924,0,0,1-4.374-1.784,6.307,6.307,0,0,1,0-8.735,6.218,6.218,0,0,1,8.73.011,6.283,6.283,0,0,1,.01,8.725h0A5.924,5.924,0,0,1,5841.63,585.8Zm-3.05-2.964a4.352,4.352,0,0,0,6.091,0,4.7,4.7,0,0,0,0-6.38,4.353,4.353,0,0,0-6.091,0,4.706,4.706,0,0,0,0,6.38Z" transform="translate(-5727.755 -573.495)"/><path class="b" d="M6464.858,596.78h-1.8l-.048-.072-5.676-8.993.053,1.759v7.306H6455.6V585h2.053l5.456,8.626-.05-1.75V585h1.8Z" transform="translate(-6333.814 -584.735)"/><path class="b" d="M3561.752,1449.7a8.14,8.14,0,1,0,8.271,8.14A8.072,8.072,0,0,0,3561.752,1449.7Zm0,13.071a4.941,4.941,0,1,1,4.652-4.931A4.728,4.728,0,0,1,3561.752,1462.775Zm-18.025-13.071a8.14,8.14,0,1,0,8.261,8.14A8.064,8.064,0,0,0,3543.726,1449.7Zm0,13.071a4.942,4.942,0,1,1,4.642-4.931A4.734,4.734,0,0,1,3543.726,1462.775Zm-21.449-10.576v3.459h8.357a7.149,7.149,0,0,1-1.9,4.342,8.641,8.641,0,0,1-6.457,2.525,9.186,9.186,0,0,1,0-18.371,8.912,8.912,0,0,1,6.3,2.467l2.466-2.436a12.263,12.263,0,0,0-8.761-3.485,12.645,12.645,0,1,0,0,25.281,11.756,11.756,0,0,0,8.924-3.551,11.325,11.325,0,0,0,3.025-8.072,11.651,11.651,0,0,0-.188-2.16Zm87.712,2.68a7.627,7.627,0,0,0-7.052-5.176,7.777,7.777,0,0,0-7.762,8.14,8.007,8.007,0,0,0,8.166,8.137,8.183,8.183,0,0,0,6.863-3.608l-2.808-1.85a4.717,4.717,0,0,1-4.055,2.251,4.191,4.191,0,0,1-3.987-2.467l11.013-4.5S3609.99,1454.879,3609.99,1454.879Zm-11.23,2.71a4.489,4.489,0,0,1,4.3-4.746,3.2,3.2,0,0,1,3.063,1.728Zm-8.949,7.895h3.619v-23.917h-3.619Zm-5.929-13.967h-.121a5.739,5.739,0,0,0-4.33-1.814,8.142,8.142,0,0,0,0,16.277,5.646,5.646,0,0,0,4.33-1.85h.121v1.167c0,3.111-1.683,4.784-4.4,4.784a4.567,4.567,0,0,1-4.151-2.907l-3.147,1.3a7.854,7.854,0,0,0,7.3,4.814c4.246,0,7.827-2.468,7.827-8.475V1450.2h-3.431Zm-4.142,11.257a4.947,4.947,0,0,1,0-9.867c2.458,0,4.4,2.092,4.4,4.961C3584.138,1460.712,3582.2,1462.775,3579.74,1462.775Zm47.2-21.208h-8.658v23.917h3.611v-9.063h5.049c4.009,0,7.941-2.868,7.941-7.428S3630.938,1441.567,3626.938,1441.567Zm.1,11.529h-5.143v-8.2h5.143a4.1,4.1,0,1,1,0,8.2Zm22.318-3.437c-2.609,0-5.321,1.139-6.437,3.661l3.2,1.327a3.428,3.428,0,0,1,3.3-1.757c1.872,0,3.773,1.112,3.8,3.077v.251a8.01,8.01,0,0,0-3.771-.926c-3.45,0-6.967,1.877-6.967,5.381,0,3.206,2.826,5.268,6,5.268a5.126,5.126,0,0,0,4.612-2.343h.125v1.85h3.487v-9.174C3656.707,1452.031,3653.5,1449.659,3649.353,1449.659Zm-.437,13.107c-1.181,0-2.826-.58-2.826-2.027,0-1.852,2.052-2.561,3.828-2.561a6.536,6.536,0,0,1,3.3.8A4.366,4.366,0,0,1,3648.916,1462.766Zm20.5-12.584-4.151,10.369h-.125l-4.291-10.369h-3.894l6.446,14.49-3.678,8.062h3.771l9.934-22.552Zm-32.547,15.3h3.621v-23.917h-3.621Z" transform="translate(-3454.22 -1421.061)"/><path class="b" d="M.695,38.474h0A3.038,3.038,0,0,1,0,36.337V2.739A3.052,3.052,0,0,1,.694.6h0q.048-.051.1-.1L.8.494h0a2.476,2.476,0,0,1,3,.012L25.539,13.04h0l.135.078h0L33,17.351c2.09,1.2,2.09,3.174,0,4.382l-7.325,4.221s-.026.013-.056.03L3.809,38.564a3.424,3.424,0,0,1-1.682.512A1.907,1.907,0,0,1,.695,38.474Z" transform="translate(0 5.754)"/></g></svg>