<svg xmlns="http://www.w3.org/2000/svg" width="285.614" height="104.064" viewBox="0 0 285.614 104.064"><defs><style>.a{fill:#fff;}.b{fill:#3d2a2b;}</style></defs><path class="a" d="M275.036,104.065H10.577C4.763,104.065,0,98.21,0,91.059V13.009C0,5.858,4.763,0,10.577,0H275.036c5.814,0,10.577,5.858,10.577,13.009V91.059C285.616,98.21,280.853,104.065,275.036,104.065Z" transform="translate(0 0)"/><g transform="translate(33.341 25.126)"><g transform="translate(0 0)"><path class="b" d="M42.377,27.831a10.836,10.836,0,0,1,5.16-9.093,11.092,11.092,0,0,0-8.74-4.726c-3.677-.385-7.242,2.2-9.117,2.2-1.91,0-4.794-2.164-7.9-2.1a11.64,11.64,0,0,0-9.8,5.972C7.747,27.421,10.907,38.2,14.963,44.127c2.03,2.9,4.4,6.143,7.507,6.029,3.037-.127,4.172-1.938,7.838-1.938,3.633,0,4.7,1.938,7.864,1.864,3.261-.053,5.313-2.915,7.273-5.845a24,24,0,0,0,3.324-6.771A10.472,10.472,0,0,1,42.377,27.831Z" transform="translate(-9.972 -2.469)"/><path class="b" d="M25.9,16.365A10.667,10.667,0,0,0,28.342,8.72a10.858,10.858,0,0,0-7.025,3.635,10.161,10.161,0,0,0-2.505,7.361A8.975,8.975,0,0,0,25.9,16.365Z" transform="translate(0.522 -8.72)"/><g transform="translate(60.255 21.685)"><path class="b" d="M50.894,37.028H41L38.62,44.045H34.427L43.8,18.078h4.356l9.374,25.967H53.27Zm-8.872-3.239h7.846L46,22.4h-.107Z" transform="translate(-34.427 -17.645)"/><path class="b" d="M64.466,31.015c0,5.882-3.149,9.663-7.9,9.663a6.419,6.419,0,0,1-5.955-3.312h-.09v9.377H46.631v-25.2h3.762V24.7h.071a6.716,6.716,0,0,1,6.029-3.346C61.3,21.35,64.466,25.147,64.466,31.015Zm-3.994,0c0-3.833-1.982-6.353-5-6.353-2.969,0-4.966,2.572-4.966,6.353,0,3.814,2,6.37,4.966,6.37C58.49,37.384,60.472,34.881,60.472,31.015Z" transform="translate(-21.111 -14.079)"/><path class="b" d="M74.431,31.015c0,5.882-3.149,9.663-7.9,9.663a6.419,6.419,0,0,1-5.955-3.312h-.09v9.377H56.6v-25.2h3.762V24.7h.071a6.716,6.716,0,0,1,6.029-3.346C71.263,21.35,74.431,25.147,74.431,31.015Zm-4,0c0-3.833-1.98-6.353-5-6.353-2.969,0-4.966,2.572-4.966,6.353,0,3.814,2,6.37,4.966,6.37,3.022,0,5-2.5,5-6.37Z" transform="translate(-10.239 -14.079)"/><path class="b" d="M73.785,37.036c.289,2.576,2.79,4.266,6.208,4.266,3.277,0,5.633-1.69,5.633-4.013,0-2.016-1.422-3.222-4.787-4.048l-3.367-.811c-4.768-1.152-6.982-3.381-6.982-7,0-4.479,3.9-7.557,9.45-7.557,5.487,0,9.249,3.078,9.374,7.557H85.393c-.234-2.591-2.375-4.155-5.508-4.155s-5.272,1.583-5.272,3.885c0,1.836,1.368,2.917,4.715,3.743l2.861.7c5.328,1.261,7.541,3.4,7.541,7.2,0,4.858-3.869,7.9-10.023,7.9-5.759,0-9.648-2.971-9.9-7.668Z" transform="translate(4.177 -17.871)"/><path class="b" d="M86.819,19.3v4.479h3.6v3.078h-3.6V37.294c0,1.623.721,2.378,2.3,2.378a12.451,12.451,0,0,0,1.278-.09v3.059a10.819,10.819,0,0,1-2.158.18c-3.833,0-5.328-1.441-5.328-5.113V26.857H80.163V23.779h2.752V19.3Z" transform="translate(15.475 -16.312)"/><path class="b" d="M86.065,31.032c0-5.958,3.509-9.7,8.979-9.7,5.489,0,8.981,3.743,8.981,9.7s-3.473,9.7-8.981,9.7S86.065,37,86.065,31.032Zm14,0c0-4.086-1.872-6.5-5.021-6.5s-5.019,2.43-5.019,6.5c0,4.1,1.869,6.495,5.019,6.495s5.021-2.392,5.021-6.495Z" transform="translate(21.915 -14.096)"/><path class="b" d="M96.186,21.546h3.708v3.222h.09a4.513,4.513,0,0,1,4.552-3.419,5.948,5.948,0,0,1,1.332.144v3.634a5.476,5.476,0,0,0-1.746-.234,3.917,3.917,0,0,0-4.071,3.754,4.146,4.146,0,0,0,.021.6V40.479H96.186Z" transform="translate(32.958 -14.079)"/><path class="b" d="M118.295,34.936c-.523,3.436-3.869,5.794-8.151,5.794-5.508,0-8.927-3.689-8.927-9.609,0-5.939,3.438-9.791,8.764-9.791,5.238,0,8.532,3.6,8.532,9.339V32H105.14v.234a4.932,4.932,0,0,0,4.477,5.347,5.062,5.062,0,0,0,.617.015,4.282,4.282,0,0,0,4.372-2.662Zm-13.136-5.65h9.464a4.552,4.552,0,0,0-4.291-4.8q-.176-.009-.351-.006a4.792,4.792,0,0,0-4.822,4.764Z" transform="translate(38.447 -14.096)"/></g><g transform="translate(60.517 1.45)"><path class="b" d="M40.177,8.738a5.521,5.521,0,0,1,5.9,5.111,5.579,5.579,0,0,1-.029,1.089c0,3.986-2.154,6.278-5.872,6.278H35.671V8.738ZM37.609,19.451h2.352a3.921,3.921,0,0,0,4.149-3.682,3.848,3.848,0,0,0-.036-.805A3.936,3.936,0,0,0,39.962,10.5H37.609Z" transform="translate(-35.671 -8.124)"/><path class="b" d="M41.692,14.993a4.461,4.461,0,1,1,8.881,0,4.461,4.461,0,1,1-8.881.866A4.278,4.278,0,0,1,41.692,14.993Zm6.97,0c0-2.041-.918-3.235-2.526-3.235s-2.524,1.194-2.524,3.235c0,2.058.908,3.243,2.524,3.243s2.526-1.194,2.526-3.243Z" transform="translate(-29.125 -6.614)"/><path class="b" d="M57.033,19.611H55.1L53.16,12.675h-.148l-1.936,6.936H49.166l-2.6-9.416h1.886l1.685,7.185h.14l1.936-7.185H54l1.936,7.185h.146l1.679-7.185h1.859Z" transform="translate(-23.78 -6.519)"/><path class="b" d="M53.854,10.295h1.788v1.5h.138a2.817,2.817,0,0,1,2.81-1.677,3.06,3.06,0,0,1,3.283,2.825,2.941,2.941,0,0,1-.023.678v6.1H59.991V14.082c0-1.514-.657-2.267-2.033-2.267A2.169,2.169,0,0,0,55.711,14.2v5.51H53.854Z" transform="translate(-15.832 -6.619)"/><path class="b" d="M59.094,8.437h1.857V21.529H59.094Z" transform="translate(-10.114 -8.437)"/><path class="b" d="M61.229,14.993a4.461,4.461,0,1,1,8.881,0,4.461,4.461,0,1,1-8.881.864A4.257,4.257,0,0,1,61.229,14.993Zm6.97,0c0-2.041-.918-3.235-2.526-3.235s-2.524,1.194-2.524,3.235c0,2.058.908,3.243,2.524,3.243S68.2,17.042,68.2,14.993Z" transform="translate(-7.808 -6.614)"/><path class="b" d="M66.4,17.042c0-1.694,1.261-2.672,3.5-2.81l2.549-.146v-.813c0-.993-.657-1.556-1.926-1.556-1.039,0-1.757.381-1.964,1.046h-1.8c.19-1.616,1.711-2.654,3.848-2.654,2.359,0,3.691,1.175,3.691,3.164v6.434H72.515V18.383h-.148a3.167,3.167,0,0,1-2.827,1.478,2.845,2.845,0,0,1-3.124-2.534C66.407,17.232,66.4,17.138,66.4,17.042Zm6.052-.8v-.788l-2.3.146c-1.3.088-1.886.529-1.886,1.359,0,.847.736,1.34,1.746,1.34a2.219,2.219,0,0,0,2.432-1.984Z" transform="translate(-2.142 -6.614)"/><path class="b" d="M71.348,16.816c0-2.976,1.531-4.86,3.908-4.86a3.1,3.1,0,0,1,2.888,1.652h.14V8.437h1.857V21.529H78.362V20.041h-.149a3.266,3.266,0,0,1-2.957,1.644C72.862,21.684,71.348,19.8,71.348,16.816Zm1.92,0c0,2,.941,3.2,2.516,3.2s2.534-1.219,2.534-3.191-.979-3.2-2.534-3.2-2.516,1.211-2.516,3.191Z" transform="translate(3.256 -8.437)"/><path class="b" d="M79.241,14.993a4.461,4.461,0,1,1,8.881,0,4.461,4.461,0,1,1-8.881.866A4.609,4.609,0,0,1,79.241,14.993Zm6.97,0c0-2.041-.916-3.235-2.526-3.235s-2.524,1.194-2.524,3.235c0,2.058.91,3.243,2.524,3.243S86.21,17.042,86.21,14.993Z" transform="translate(11.845 -6.614)"/><path class="b" d="M84.669,10.295h1.79v1.5H86.6a2.817,2.817,0,0,1,2.81-1.677,3.069,3.069,0,0,1,3.26,3.5v6.1H90.808V14.082c0-1.514-.657-2.267-2.032-2.267a2.162,2.162,0,0,0-2.258,2.058,2.448,2.448,0,0,0,.01.328v5.51H84.669Z" transform="translate(17.79 -6.619)"/><path class="b" d="M95.265,9.074V11.46h2.041v1.566H95.265v4.841c0,.987.408,1.42,1.332,1.42a6.718,6.718,0,0,0,.709-.044V20.79a6.1,6.1,0,0,1-1.012.1c-2.066,0-2.888-.728-2.888-2.543V13.026h-1.5V11.46h1.5V9.074Z" transform="translate(25.692 -7.742)"/><path class="b" d="M95.705,8.437h1.84v5.188h.148a2.9,2.9,0,0,1,2.871-1.685,3.1,3.1,0,0,1,3.266,2.928,3.208,3.208,0,0,1-.023.583v6.079h-1.861V15.909c0-1.5-.7-2.267-2.014-2.267a2.2,2.2,0,0,0-2.371,2.014,2.241,2.241,0,0,0,0,.374v5.5H95.705Z" transform="translate(29.831 -8.437)"/><path class="b" d="M109.18,17.164a3.824,3.824,0,0,1-4.08,2.725,4.277,4.277,0,0,1-4.387-4.163,4.345,4.345,0,0,1,.038-.7,4.345,4.345,0,0,1,3.728-4.881,4.286,4.286,0,0,1,.613-.038c2.62,0,4.2,1.79,4.2,4.747V15.5h-6.65v.1a2.489,2.489,0,0,0,2.271,2.689c.079.006.159.008.236.008a2.262,2.262,0,0,0,2.242-1.142Zm-6.537-3.034H107.4a2.272,2.272,0,0,0-2.1-2.434,1.924,1.924,0,0,0-.22-.006,2.408,2.408,0,0,0-2.438,2.378v.063Z" transform="translate(35.294 -6.614)"/></g></g></g></svg>