<svg xmlns="http://www.w3.org/2000/svg" width="125.422" height="148.064" viewBox="0 0 125.422 148.064"><defs><style>.a{fill:#e87a1a;}</style></defs><g transform="translate(-39.147)"><path class="a" d="M161.581,256.371a13.992,13.992,0,0,0-11.1-5.414H137.429V241H39.147v29.569a48.781,48.781,0,0,0,21.059,40.126H39.181v8.676h98.213v-8.676H116.37a49.2,49.2,0,0,0,11.565-11.237h9.523a24.215,24.215,0,0,0,23.526-18.369l3.16-12.639A13.993,13.993,0,0,0,161.581,256.371Zm-5.855,9.975-3.16,12.639a15.552,15.552,0,0,1-15.11,11.8h-4.414a48.516,48.516,0,0,0,4.387-20.213V259.632h13.055a5.4,5.4,0,0,1,5.242,6.713Z" transform="translate(0 -171.306)"/><path class="a" d="M174.112,34.207A14.311,14.311,0,0,0,159.817,48.5v9.956h8.676V48.5a5.625,5.625,0,0,1,5.619-5.619h39.824A34.246,34.246,0,0,0,248.143,8.674V0h-8.676V8.674a25.561,25.561,0,0,1-25.532,25.532Z" transform="translate(-85.774 0)"/><path class="a" d="M99.636,49.783A25.561,25.561,0,0,1,125.168,24.25h39.824A14.311,14.311,0,0,0,179.286,9.956V0h-8.676V9.956a5.625,5.625,0,0,1-5.619,5.619H125.168A34.246,34.246,0,0,0,90.96,49.783v8.674h8.676Z" transform="translate(-36.829)"/></g></svg>