<svg xmlns="http://www.w3.org/2000/svg" width="54.851" height="54.851" viewBox="0 0 54.851 54.851"><defs><style>.a{fill:#fff;}</style></defs><path class="a" d="M46.814,8.037a27.419,27.419,0,1,0,0,38.777A27.4,27.4,0,0,0,46.814,8.037ZM45.668,42.9a27.485,27.485,0,0,0-4.1-3.033,44.345,44.345,0,0,0,1.654-10.7h8.061A23.708,23.708,0,0,1,45.668,42.9ZM3.564,29.172h8.061a44.345,44.345,0,0,0,1.654,10.7,27.485,27.485,0,0,0-4.1,3.033A23.709,23.709,0,0,1,3.564,29.172Zm5.62-17.227a27.484,27.484,0,0,0,4.1,3.033,44.345,44.345,0,0,0-1.654,10.7H3.564A23.709,23.709,0,0,1,9.183,11.945Zm16.5,3.394a23.739,23.739,0,0,1-8.145-2.064c1.481-3.815,4.213-8.391,8.145-9.524Zm0,3.5v6.837H15.121a41.169,41.169,0,0,1,1.325-9.059A27.236,27.236,0,0,0,25.678,18.841Zm0,10.332V36.01a27.236,27.236,0,0,0-9.232,2.222,41.169,41.169,0,0,1-1.325-9.059Zm0,10.338V51.1c-3.932-1.134-6.663-5.709-8.145-9.524A23.739,23.739,0,0,1,25.678,39.511Zm3.495,0a23.739,23.739,0,0,1,8.145,2.064c-1.482,3.815-4.213,8.39-8.145,9.524Zm0-3.5V29.172H39.73A41.17,41.17,0,0,1,38.4,38.232a27.236,27.236,0,0,0-9.232-2.222Zm0-10.332V18.841A27.236,27.236,0,0,0,38.4,16.619a41.17,41.17,0,0,1,1.325,9.059Zm0-10.338V3.752c3.932,1.134,6.663,5.709,8.145,9.524A23.741,23.741,0,0,1,29.173,15.339ZM37.021,5.5a23.82,23.82,0,0,1,6.194,3.955A24.016,24.016,0,0,1,40.4,11.585,26.307,26.307,0,0,0,37.021,5.5ZM14.447,11.585a24.025,24.025,0,0,1-2.811-2.133A23.82,23.82,0,0,1,17.83,5.5a26.316,26.316,0,0,0-3.383,6.089Zm0,31.68a26.309,26.309,0,0,0,3.383,6.089A23.82,23.82,0,0,1,11.636,45.4,24.015,24.015,0,0,1,14.447,43.265Zm25.957,0A24.026,24.026,0,0,1,43.215,45.4a23.819,23.819,0,0,1-6.194,3.955A26.306,26.306,0,0,0,40.4,43.265Zm2.822-17.587a44.344,44.344,0,0,0-1.654-10.7,27.49,27.49,0,0,0,4.1-3.033,23.709,23.709,0,0,1,5.619,13.733Z" transform="translate(0 0.001)"/></svg>