<svg xmlns="http://www.w3.org/2000/svg" width="147.559" height="138.886" viewBox="0 0 147.559 138.886"><defs><style>.a{fill:#e87a1a;}</style></defs><g transform="translate(226 96.073)"><g transform="translate(-226 -96.073)"><path class="a" d="M27.876,33.455c4.484-2.137,5.947-8.421,3.282-14-2.67-5.6-8.472-8.421-12.956-6.284s-5.947,8.421-3.278,14.022S23.4,35.6,27.876,33.455Z" transform="translate(49.955 41.439)"/><path class="a" d="M64.6,9.8c4.311,26.983-14.892,47.21-14.892,47.21S33.878,30.219,7.255,22.135C59.043,60,29.567,107.213,29.567,107.213h14.99S79.405,47.08,64.6,9.8Z" transform="translate(26.667 31.672)"/><path class="a" d="M17.3,17.74c-.29-.43-.584-.888-.879-1.393a22.526,22.526,0,0,1-2-4.563,23.7,23.7,0,0,1,2.95,4.007c.285.5.533.991.762,1.459a8.094,8.094,0,0,0-.627-5.349C16,9.287,12.52,8.473,12.52,8.473s-1.038,3.423.472,6.041A8.044,8.044,0,0,0,17.3,17.74Z" transform="translate(44.742 26.809)"/><path class="a" d="M20.622,17.137a8.075,8.075,0,0,0,4.942,2.123c3.02,0,5.461-2.614,5.461-2.614s-2.436-2.609-5.461-2.609a8.075,8.075,0,0,0-4.942,2.123c.519-.037,1.061-.065,1.646-.065a23.4,23.4,0,0,1,4.961.542,22.855,22.855,0,0,1-4.961.547A14.4,14.4,0,0,1,20.622,17.137Z" transform="translate(75.799 47.261)"/><path class="a" d="M19.023,15.792a22.769,22.769,0,0,1,2.95-4.016,22.661,22.661,0,0,1-2,4.573c-.29.5-.584.963-.884,1.393A8.035,8.035,0,0,0,23.4,14.525c1.515-2.623.486-6.05.486-6.05S20.4,9.3,18.892,11.907a8.061,8.061,0,0,0-.631,5.349A15.771,15.771,0,0,1,19.023,15.792Z" transform="translate(66.429 26.817)"/><path class="a" d="M19.117,22.321a50.931,50.931,0,0,1,1.22-11.006,50.856,50.856,0,0,1,1.225,11.006c0,1.286-.061,2.5-.154,3.652,1.674-1.931,4.727-6.116,4.727-11,0-6.714-5.8-12.152-5.8-12.152s-5.8,5.438-5.8,12.152c0,4.881,3.053,9.061,4.722,11C19.178,24.823,19.117,23.612,19.117,22.321Z" transform="translate(53.444 6.046)"/><path class="a" d="M13.2,20.414c4.231,2.441,9.375,1.884,11.886,1.4-1.038-.486-2.127-1.057-3.236-1.693a50.782,50.782,0,0,1-8.921-6.555A50.821,50.821,0,0,1,23.075,18.01c1.113.645,2.137,1.3,3.091,1.959-.832-2.422-2.922-7.154-7.158-9.594C13.2,7.013,5.588,9.314,5.588,9.314S7.393,17.061,13.2,20.414Z" transform="translate(20.54 27.077)"/><path class="a" d="M34.524,19.54c-4.227-2.436-9.37-1.889-11.881-1.407,1.043.491,2.127,1.061,3.24,1.7A51.282,51.282,0,0,1,34.8,26.385a50.723,50.723,0,0,1-10.146-4.437c-1.113-.65-2.137-1.3-3.086-1.964.832,2.422,2.922,7.149,7.149,9.59,5.807,3.362,13.424,1.061,13.424,1.061S40.331,22.893,34.524,19.54Z" transform="translate(79.291 60.788)"/><path class="a" d="M26.167,20c-.954.65-1.973,1.3-3.086,1.954A51.656,51.656,0,0,1,12.935,26.4a50.81,50.81,0,0,1,8.921-6.565c1.117-.65,2.2-1.2,3.24-1.7-2.506-.486-7.659-1.043-11.886,1.407C7.4,22.9,5.585,30.641,5.585,30.641s7.612,2.3,13.424-1.052C23.245,27.139,25.335,22.412,26.167,20Z" transform="translate(20.529 60.786)"/><path class="a" d="M21.573,19.957c.949-.65,1.973-1.3,3.1-1.95a50.724,50.724,0,0,1,10.137-4.442,50.564,50.564,0,0,1-8.921,6.555c-1.113.645-2.2,1.206-3.231,1.693,2.5.486,7.654,1.047,11.871-1.4,5.817-3.357,7.626-11.1,7.626-11.1s-7.607-2.3-13.414,1.061C24.5,12.812,22.4,17.544,21.573,19.957Z" transform="translate(79.295 27.071)"/><path class="a" d="M22.965,28.517c-.87-1.276-1.753-2.651-2.618-4.147a68.011,68.011,0,0,1-5.961-13.6,67.939,67.939,0,0,1,8.795,11.97c.865,1.487,1.608,2.941,2.272,4.339.655-3.362,1.4-10.258-1.875-15.925C19.079,3.362,8.7.931,8.7.931s-3.081,10.2,1.417,17.992C13.389,24.594,19.739,27.4,22.965,28.517Z" transform="translate(28.191 -0.912)"/><path class="a" d="M23.018,22.361c.87,1.276,1.763,2.646,2.623,4.138A68.384,68.384,0,0,1,31.6,40.105,68.528,68.528,0,0,1,22.8,28.14c-.86-1.5-1.608-2.95-2.272-4.339-.641,3.362-1.389,10.244,1.88,15.916,4.5,7.79,14.878,10.23,14.878,10.23s3.1-10.212-1.407-18C32.594,26.279,26.249,23.478,23.018,22.361Z" transform="translate(73.394 77.857)"/><path class="a" d="M26.128,22.357a67.969,67.969,0,0,1-14.756-1.646,67.969,67.969,0,0,1,14.756-1.646c1.73,0,3.362.094,4.9.206-2.586-2.244-8.187-6.34-14.742-6.34C7.294,12.936,0,20.711,0,20.711s7.3,7.78,16.285,7.776c6.551,0,12.152-4.091,14.738-6.331C29.485,22.273,27.848,22.357,26.128,22.357Z" transform="translate(0 43.196)"/><path class="a" d="M39.663,12.935c-6.546,0-12.147,4.077-14.738,6.331,1.543-.117,3.179-.206,4.9-.2a68.1,68.1,0,0,1,14.756,1.641A67.879,67.879,0,0,1,29.83,22.352c-1.725,0-3.362-.089-4.9-.2,2.586,2.24,8.192,6.331,14.738,6.331,9,0,16.281-7.766,16.281-7.766S48.649,12.926,39.663,12.935Z" transform="translate(91.616 43.21)"/><path class="a" d="M23.19,28.148a68.377,68.377,0,0,1-8.8,11.965,68.011,68.011,0,0,1,5.957-13.606c.87-1.487,1.753-2.857,2.628-4.147-3.236,1.122-9.585,3.928-12.858,9.6-4.5,7.79-1.417,18-1.417,18s10.385-2.431,14.883-10.221c3.278-5.672,2.534-12.573,1.884-15.925C24.789,25.2,24.045,26.638,23.19,28.148Z" transform="translate(28.186 77.853)"/><path class="a" d="M22.811,22.744a68.072,68.072,0,0,1,8.795-11.96,67.811,67.811,0,0,1-5.961,13.6c-.86,1.482-1.744,2.866-2.614,4.143,3.231-1.117,9.58-3.923,12.849-9.59C40.382,11.143,37.3.927,37.3.927S26.92,3.363,22.418,11.153c-3.287,5.672-2.539,12.568-1.889,15.925C21.2,25.7,21.941,24.244,22.811,22.744Z" transform="translate(73.382 -0.927)"/></g></g></svg>