<svg xmlns="http://www.w3.org/2000/svg" width="74.687" height="49.791" viewBox="0 0 74.687 49.791">
  <path id="laptop" d="M16.182,39.833a6.24,6.24,0,0,1-6.224-6.224V6.224a5.994,5.994,0,0,1,1.828-4.4A5.994,5.994,0,0,1,16.182,0H58.5a5.994,5.994,0,0,1,4.4,1.828,5.994,5.994,0,0,1,1.828,4.4V33.609A6.24,6.24,0,0,1,58.5,39.833ZM14.937,6.224V33.609a1.261,1.261,0,0,0,1.245,1.245H58.5a1.261,1.261,0,0,0,1.245-1.245V6.224A1.261,1.261,0,0,0,58.5,4.979H16.182a1.261,1.261,0,0,0-1.245,1.245Zm53.526,36.1h6.224v3.734A3.117,3.117,0,0,1,72.859,48.7a8.436,8.436,0,0,1-4.4,1.089H6.224a8.436,8.436,0,0,1-4.4-1.089A3.117,3.117,0,0,1,0,46.057V42.323ZM40.456,46.057a.622.622,0,0,0,0-1.245H34.232a.622.622,0,0,0,0,1.245Z" fill="#fff"/>
</svg>
