<svg xmlns="http://www.w3.org/2000/svg" width="43.641" height="65.461" viewBox="0 0 43.641 65.461">
  <path id="lightbulb-o" d="M31.367,19.093a1.306,1.306,0,0,1-.405.958,1.32,1.32,0,0,1-.958.405,1.3,1.3,0,0,1-.958-.405,1.314,1.314,0,0,1-.405-.958q0-1.96-2.3-3.026A10.7,10.7,0,0,0,21.82,15a1.306,1.306,0,0,1-.958-.405,1.32,1.32,0,0,1-.405-.958,1.3,1.3,0,0,1,.405-.958,1.314,1.314,0,0,1,.958-.405,13.713,13.713,0,0,1,4.24.682,9.061,9.061,0,0,1,3.708,2.3A5.277,5.277,0,0,1,31.367,19.093Zm6.819,0a11.55,11.55,0,0,0-1.471-5.711A12.978,12.978,0,0,0,32.88,9.055a19.7,19.7,0,0,0-5.242-2.642A18.134,18.134,0,0,0,16,6.413a19.7,19.7,0,0,0-5.242,2.642,12.978,12.978,0,0,0-3.835,4.326,11.55,11.55,0,0,0-1.471,5.711,11.433,11.433,0,0,0,2.9,7.672q.425.469,1.3,1.406t1.3,1.406q5.455,6.521,6.01,12.7h9.717q.555-6.179,6.01-12.7.425-.469,1.3-1.406t1.3-1.406a11.433,11.433,0,0,0,2.9-7.672Zm5.455,0a16.385,16.385,0,0,1-4.39,11.421q-1.918,2.087-3.175,3.708a27.333,27.333,0,0,0-2.537,4.071,12.062,12.062,0,0,0-1.449,4.58,3.83,3.83,0,0,1,2,3.495A3.88,3.88,0,0,1,33.029,49.1a4.047,4.047,0,0,1-.853,6.179,4.023,4.023,0,0,1,.555,2A3.64,3.64,0,0,1,31.389,60.3a5.144,5.144,0,0,1-3.3,1.066,6.889,6.889,0,0,1-2.557,2.984,6.76,6.76,0,0,1-7.415,0,6.862,6.862,0,0,1-2.557-2.984,5.144,5.144,0,0,1-3.3-1.066,3.64,3.64,0,0,1-1.342-3.026,4.023,4.023,0,0,1,.555-2,4.047,4.047,0,0,1-.853-6.179A3.88,3.88,0,0,1,9.55,46.368a3.83,3.83,0,0,1,2-3.495A12.106,12.106,0,0,0,10.1,38.291a26.846,26.846,0,0,0-2.54-4.069Q6.3,32.6,4.39,30.514A16.385,16.385,0,0,1,0,19.093,16.779,16.779,0,0,1,1.9,11.23,18.22,18.22,0,0,1,6.882,5.179a24.765,24.765,0,0,1,6.99-3.793,23.489,23.489,0,0,1,15.9,0,24.764,24.764,0,0,1,6.99,3.793,18.22,18.22,0,0,1,4.986,6.051A16.779,16.779,0,0,1,43.641,19.093Z" fill="#fff"/>
</svg>
