<svg xmlns="http://www.w3.org/2000/svg" width="31.234" height="31.234" viewBox="0 0 31.234 31.234"><defs><style>.a{fill:#007ab9;}.b{fill:#f1f2f2;}</style></defs><circle class="a" cx="15.617" cy="15.617" r="15.617" transform="translate(0 0)"/><g transform="translate(7.536 6.673)"><path class="b" d="M44.481,34.17v6.439H40.748V34.6c0-1.508-.539-2.538-1.891-2.538a2.042,2.042,0,0,0-1.915,1.365,2.555,2.555,0,0,0-.124.91v6.27H33.086s.05-10.174,0-11.227h3.734v1.591c-.008.013-.018.025-.025.037h.025v-.037a3.707,3.707,0,0,1,3.364-1.855c2.456,0,4.3,1.6,4.3,5.053Zm-15.3-10.2a1.945,1.945,0,1,0-.049,3.88h.024a1.946,1.946,0,1,0,.025-3.88ZM27.29,40.608h3.732V29.381H27.29Z" transform="translate(-27.068 -23.969)"/></g></svg>