<svg xmlns="http://www.w3.org/2000/svg" width="47.801" height="37.557" viewBox="0 0 47.801 37.557">
  <path id="list-ul" d="M10.242,32.436a4.939,4.939,0,0,1-1.494,3.627,4.939,4.939,0,0,1-3.627,1.494,4.939,4.939,0,0,1-3.627-1.494,5.151,5.151,0,0,1,0-7.255,4.939,4.939,0,0,1,3.627-1.494,4.939,4.939,0,0,1,3.627,1.494A4.939,4.939,0,0,1,10.242,32.436Zm0-13.657a4.939,4.939,0,0,1-1.494,3.627A4.939,4.939,0,0,1,5.121,23.9a4.939,4.939,0,0,1-3.627-1.494,5.151,5.151,0,0,1,0-7.255,4.939,4.939,0,0,1,3.627-1.494,4.939,4.939,0,0,1,3.627,1.494,4.939,4.939,0,0,1,1.494,3.627ZM47.8,29.875V35a.866.866,0,0,1-.854.854H14.511A.866.866,0,0,1,13.657,35V29.875a.866.866,0,0,1,.854-.854H46.947a.866.866,0,0,1,.854.854ZM10.242,5.121A4.939,4.939,0,0,1,8.749,8.749a4.939,4.939,0,0,1-3.627,1.494A4.939,4.939,0,0,1,1.494,8.749,4.939,4.939,0,0,1,0,5.121,4.939,4.939,0,0,1,1.494,1.494,4.939,4.939,0,0,1,5.121,0,4.939,4.939,0,0,1,8.749,1.494,4.939,4.939,0,0,1,10.242,5.121ZM47.8,16.217v5.121a.866.866,0,0,1-.854.854H14.511a.866.866,0,0,1-.854-.854V16.217a.866.866,0,0,1,.854-.854H46.947a.866.866,0,0,1,.854.854Zm0-13.657V7.681a.869.869,0,0,1-.854.855H14.511a.866.866,0,0,1-.854-.854V2.561a.82.82,0,0,1,.254-.6.82.82,0,0,1,.6-.254H46.947a.864.864,0,0,1,.852.854Z" fill="#fff"/>
</svg>
