<svg xmlns="http://www.w3.org/2000/svg" width="134.47" height="134.466" viewBox="0 0 134.47 134.466"><defs><style>.a{fill:#e87a1a;}</style></defs><g transform="translate(0 -0.007)"><g transform="translate(63.294 31.785)"><path class="a" d="M244.934,121a3.94,3.94,0,1,0,3.94,3.94A3.942,3.942,0,0,0,244.934,121Z" transform="translate(-240.994 -121.004)"/></g><g transform="translate(23.637 58.788)"><path class="a" d="M138.88,242.843a11.832,11.832,0,0,1-10.572,0L90,223.819v24.21a3.937,3.937,0,0,0,1.316,2.939c.766.685,19.287,16.758,42.281,16.758s41.515-16.073,42.281-16.758a3.938,3.938,0,0,0,1.316-2.939v-24.21Z" transform="translate(-89.998 -223.819)"/></g><g transform="translate(0 0.007)"><g transform="translate(0 0)"><path class="a" d="M134.263,129.288l-6.546-19.9a11.748,11.748,0,0,0-1.13-21.724V42.1l5.7-2.851a3.94,3.94,0,0,0,0-7.048L68.995.423a3.945,3.945,0,0,0-3.524,0L2.178,32.2a3.94,3.94,0,0,0,0,7.048L65.471,70.764a3.944,3.944,0,0,0,3.524,0l49.713-24.726V87.663a11.748,11.748,0,0,0-1.129,21.724l-6.546,19.9a3.937,3.937,0,0,0,3.736,5.186h15.758A3.937,3.937,0,0,0,134.263,129.288ZM67.233,47.543A11.818,11.818,0,1,1,79.052,35.725,11.831,11.831,0,0,1,67.233,47.543Z" transform="translate(0 -0.007)"/></g></g></g></svg>