<svg xmlns="http://www.w3.org/2000/svg" width="126.542" height="126.618" viewBox="0 0 126.542 126.618"><defs><style>.a{fill:#e87a1a;}</style></defs><g transform="translate(-0.153)"><g transform="translate(7.197)"><path class="a" d="M144.878,107.656,95.229,58.007,37.222,0H32.689l-.926,2.352a41.588,41.588,0,0,0-3.018,18.362,25.934,25.934,0,0,0,7.269,16.565L81.3,82.562l5.973-5.973L129.134,123.4a11.133,11.133,0,1,0,15.744-15.745Z" transform="translate(-28.636)"/></g><g transform="translate(0.153 72.074)"><g transform="translate(0)"><path class="a" d="M38.874,291.442,3.408,326.908a11.133,11.133,0,0,0,15.744,15.744l35.466-35.466Z" transform="translate(-0.153 -291.442)"/></g></g><g transform="translate(67.963 0.089)"><path class="a" d="M327.746,21.354,307.628,41.472l-5.248-5.248L322.5,16.105l-5.248-5.248L297.131,30.975l-5.248-5.248L312,5.609,306.753.361,280.512,26.6a18.524,18.524,0,0,0-5.4,12,10.691,10.691,0,0,1-.76,3.35L291.4,59a10.68,10.68,0,0,1,3.35-.76,18.52,18.52,0,0,0,12-5.4L332.994,26.6Z" transform="translate(-274.354 -0.361)"/></g></g></svg>