<svg xmlns="http://www.w3.org/2000/svg" width="130.321" height="134.709" viewBox="0 0 130.321 134.709"><defs><style>.a{fill:#e87a1a;}</style></defs><g transform="translate(0 0)"><g transform="translate(0)"><circle class="a" cx="15.925" cy="15.925" r="15.925" transform="translate(35.911 102.86)"/><path class="a" d="M282.422,324.1h0a15.924,15.924,0,1,0,15.925,15.925A15.925,15.925,0,0,0,282.422,324.1Z" transform="translate(-184.112 -221.238)"/><path class="a" d="M132.359,86.61H49.324L47.7,77.185h68.248A4.875,4.875,0,0,0,120.5,74.1l16.249-40.949a4.875,4.875,0,0,0-4.55-6.662H39.25L35.35,4.062A4.875,4.875,0,0,0,30.475,0H11.788a4.875,4.875,0,1,0,0,9.75H26.412L40.387,92.3a4.875,4.875,0,0,0,4.875,4.062h87.1a4.875,4.875,0,0,0,0-9.75Z" transform="translate(-6.913 0.001)"/></g></g></svg>