<svg xmlns="http://www.w3.org/2000/svg" width="31" height="31" viewBox="0 0 31 31"><defs><style>.a{fill:#2daae1;}.b{fill:#fff;}</style></defs><g transform="translate(-0.278 -0.359)"><circle class="a" cx="15.5" cy="15.5" r="15.5" transform="translate(0.278 0.36)"/><path class="b" d="M252.019,145.237a8.151,8.151,0,0,1-2.345.643,4.1,4.1,0,0,0,1.8-2.259,8.158,8.158,0,0,1-2.593.991,4.085,4.085,0,0,0-7.063,2.794,4.13,4.13,0,0,0,.105.931,11.593,11.593,0,0,1-8.416-4.266,4.087,4.087,0,0,0,1.263,5.451,4.065,4.065,0,0,1-1.85-.51v.052a4.085,4.085,0,0,0,3.275,4,4.063,4.063,0,0,1-1.076.143,4.146,4.146,0,0,1-.769-.072,4.088,4.088,0,0,0,3.814,2.835,8.222,8.222,0,0,1-6.045,1.69,11.611,11.611,0,0,0,17.876-9.782q0-.266-.012-.528A8.32,8.32,0,0,0,252.019,145.237Z" transform="translate(-226.701 -135.669)"/></g></svg>