<svg xmlns="http://www.w3.org/2000/svg" width="54.851" height="54.851" viewBox="0 0 54.851 54.851"><defs><style>.a{fill:#fff;}</style></defs><path class="a" d="M30.426,3A27.79,27.79,0,0,0,3,30.426,27.79,27.79,0,0,0,30.426,57.851,27.79,27.79,0,0,0,57.851,30.426,27.791,27.791,0,0,0,30.426,3Zm0,13.713a7.991,7.991,0,0,1,8.228,8.228,7.991,7.991,0,0,1-8.228,8.228A7.993,7.993,0,0,1,22.2,24.94,7.993,7.993,0,0,1,30.426,16.713Zm-14,26.8a13.6,13.6,0,0,1,11.261-6.034h5.485a13.6,13.6,0,0,1,11.261,6.034,19.1,19.1,0,0,1-28.007,0Z" transform="translate(-3 -3)"/></svg>