<svg xmlns="http://www.w3.org/2000/svg" width="31.235" height="31.235" viewBox="0 0 31.235 31.235"><defs><style>.a{fill:#c4302b;}.b{fill:#fff;}</style></defs><path class="a" d="M15.618,0A15.618,15.618,0,1,1,0,15.618,15.618,15.618,0,0,1,15.618,0Z"/><path class="b" d="M72.158,61.5a1.839,1.839,0,0,0,1.164-.381,1.114,1.114,0,0,0,.422-.922V57.826a1.04,1.04,0,0,0-.43-.858,1.761,1.761,0,0,0-1.107-.332,1.984,1.984,0,0,0-1.179.314.992.992,0,0,0-.439.848v2.376a1.134,1.134,0,0,0,.427.93A1.778,1.778,0,0,0,72.158,61.5Zm-.516-3.583a.253.253,0,0,1,.14-.22.7.7,0,0,1,.363-.083.8.8,0,0,1,.391.083.25.25,0,0,1,.148.22v2.251a.3.3,0,0,1-.146.263.721.721,0,0,1-.393.095.627.627,0,0,1-.373-.094.306.306,0,0,1-.13-.264Zm3.784,3.58a1.218,1.218,0,0,0,.534-.2,2,2,0,0,0,.532-.443v.526h.922V56.629h-.922v3.6a1.308,1.308,0,0,1-.284.255.524.524,0,0,1-.258.1.215.215,0,0,1-.187-.076.4.4,0,0,1-.06-.242V56.63h-.921V60.6a1.047,1.047,0,0,0,.162.635A.605.605,0,0,0,75.426,61.494Zm2.682,1.963H66.961a3.148,3.148,0,0,0-3.208,3.083v2.606a3.148,3.148,0,0,0,3.208,3.084H78.109a3.149,3.149,0,0,0,3.208-3.084V66.539A3.148,3.148,0,0,0,78.109,63.457ZM68.62,66.1h-.986v4.082H66.68V66.1h-.986v-.7H68.62S68.62,66.1,68.62,66.1Zm2.942,4.139H70.534v-.424a2.195,2.195,0,0,1-.594.356,1.559,1.559,0,0,1-.6.124.745.745,0,0,1-.537-.174.683.683,0,0,1-.181-.515V66.385h1.028v2.957a.268.268,0,0,0,.063.2.3.3,0,0,0,.212.06.709.709,0,0,0,.287-.081,1.319,1.319,0,0,0,.319-.207V66.384h1.028S71.562,70.241,71.562,70.241Zm3.891-.734a.72.72,0,0,1-.239.581,1.032,1.032,0,0,1-.689.2,1.675,1.675,0,0,1-.532-.077,1.338,1.338,0,0,1-.434-.242v.273H72.532V65.406h1.026v1.559a1.671,1.671,0,0,1,.435-.248,1.336,1.336,0,0,1,.469-.085,1.067,1.067,0,0,1,.735.226.849.849,0,0,1,.256.668Zm3.91-1.088H77.469v.7a.633.633,0,0,0,.1.405.43.43,0,0,0,.336.112.492.492,0,0,0,.346-.1.626.626,0,0,0,.1-.423v-.168h1.018v.189a1.007,1.007,0,0,1-.374.856,1.8,1.8,0,0,1-1.112.287,1.639,1.639,0,0,1-1.048-.3,1.013,1.013,0,0,1-.383-.837V67.475a.929.929,0,0,1,.422-.785,1.811,1.811,0,0,1,1.083-.3,1.693,1.693,0,0,1,1.045.28.955.955,0,0,1,.364.805S79.363,68.418,79.363,68.418Zm-11.3-6.911h1.165V58.67l1.356-4H69.4l-.72,2.735h-.074l-.755-2.735H66.679l1.388,4.13S68.067,61.508,68.067,61.508ZM73.983,67.2l-.216.035-.21.108v2.224a.894.894,0,0,0,.241.126l.245.038a.406.406,0,0,0,.274-.076.308.308,0,0,0,.088-.244V67.565a.338.338,0,0,0-.106-.274A.481.481,0,0,0,73.983,67.2Z" transform="translate(-56.917 -48.806)"/><path class="b" d="M192.548,170.021a.47.47,0,0,0-.34.1.447.447,0,0,0-.1.332v.373h.876v-.373a.373.373,0,0,0-.434-.433Z" transform="translate(-171.509 -151.791)"/></svg>